# xmcd
#
# Track frame offsets:
#	150
#	9637
#	26163
#	42072
#	54934
#	75459
#	91912
#	109187
#	119628
#	137568
#	147316
#	162915
#	177501
#	189774
#
# Disc length: 2709 seconds
#
# Revision: 1
# Processed by: cddbd v1.5.2PL0 Copyright (c) Steve Scherf et al.
# Submitted via: audiograbber 1.83.01
#
DISCID=b20a930e
DTITLE=Blake Shelton - Cheers, it's Christmas
DYEAR=2012
DGENRE=Country
TTITLE0=Jingle Bell Rock (feat. Miranda Lambert)
TTITLE1=White Christmas
TTITLE2=Oklahoma Christmas (feat. Reba)
TTITLE3=Let It Snow! Let It Snow! Let It Snow!
TTITLE4=There's A New Kid In Town (feat. Kelly Clarkson)
TTITLE5=Santa's Got A Choo Choo Train
TTITLE6=Home (feat. Michael Bublé)
TTITLE7=Winter Wonderland
TTITLE8=The Christmas Song
TTITLE9=Blue Christmas (feat. Pistol Annies)
TTITLE10=I'll Be Home For Christmas
TTITLE11=Silver Bells (feat. Xenia)
TTITLE12=Time For Me To Come Home (feat. Dorothy Shackleford)
TTITLE13=The Very Best Time Of Year (feat. Trypta-Phunk)
EXTD=Released: October 2, 2012. Reigning ACM and CMA Male Vocalist of the year,
EXTD=Blake Shelton presents his first Christmas album, Cheers It's Christmas o
EXTD=n Warner Bros. Records. The album will feature several duet performances i
EXTD=ncluding fellow The Voice advisor Michael Buble, long-time friend Reba, an
EXTD=d a very special duet with his mother, Dorothy Shackleford. The album incl
EXTD=udes classic Christmas songs that have touched Blake over the years. Many 
EXTD=of the tracks were also recorded at the famous Capitol Studios with full o
EXTD=rchestral accompaniment.
EXTT0=
EXTT1=
EXTT2=
EXTT3=
EXTT4=
EXTT5=
EXTT6=
EXTT7=
EXTT8=
EXTT9=
EXTT10=
EXTT11=
EXTT12=
EXTT13=
PLAYORDER=
